<svg width="372" height="189" viewBox="0 0 372 189" fill="none" xmlns="http://www.w3.org/2000/svg">
<g clip-path="url(#clip0_21_26)">
<path d="M20.0833 168.167L18.3125 167.062L17.4375 165.75L17.2292 164.208L17 162.896L17.2292 161.562L18.1042 159.375L18.7708 157.167L18.9792 155.646L19.2083 154.312L20.0833 151.458V148.167L20.9583 145.312V143.771L21.1875 142.458L21.625 139.604L22.0625 137.625V135L23.1458 131.917L23.5833 130.604L24.25 129.062L24.0417 127.75L24.6875 124.896L25.3542 123.354V122.042L25.5625 120.729L26 117.646L26.4375 116.333V113.25L26.6667 111.937L26.8958 110.396V109.083L27.7708 106V104.479L28.8542 101.396L29.75 94.8125L30.625 91.7292V90.6458L31.9375 84.4792L32.375 81.625L32.8125 79L33.9167 76.1458L34.125 74.3958V71.3125L35.2292 68.4583V66.9167L35.6667 64.2917L36.3333 59.6667L36.1042 57.9167L36.7708 56.1667L37.6458 53.0833L38.0833 51.3333L37.6458 49.7917L38.0833 48.0417L38.3125 45.1875L38.75 42.7708L39.625 41.4375V39.9167L39.8333 38.375V37.0625L40.7292 35.5208L40.9375 32L41.6042 28.4792L42.4792 25.8542L42.7083 23.2083V21.6875L43.1458 20.3542L44.2292 15.9792L44.8958 14.6458L48.4167 14.2083H53.6875L61.8125 14.4375H70.375L74.7708 14.6458L75.4167 17.2917L75.2083 18.8333V20.3542L73.875 25.625V27.1667L73.4375 28.4792L72.7917 33.1042L72.3542 35.5208L71.8958 37.7083L70.1458 45.3958L69.5 48.4792V50.2292L68.6042 53.3125L68.1667 56.375L67.2917 57.9167L67.7292 59.6667L67.2917 61.4375L67.0833 62.9583L66.625 64.5L65.9792 67.5833L65.3125 70.4375L64.4375 71.9792L64.6667 73.7292L64.2292 75.2708V77.0208L63.5625 81.625L63.125 83.1667V86.25L62.6875 87.7917L62.0208 91.0833L61.8125 92.6042L60.9167 96.125L60.7083 99.4167L60.0417 102.5L59.8333 104.25L59.6042 105.792L58.7292 109.312V110.833L58.2917 112.604L58.0625 115.667L57.1875 118.521L56.9792 121.375L56.5417 123.354V125.562L56.3125 127.083L56.1042 128.417L55.6458 129.937L55.4375 132.354L55 134.562V136.75L56.1042 137.854H58.2917L60.2708 138.062H71.6875L76.5208 137.854H82.2292L83.5417 138.521L83.3333 141.812L82.8958 143.333L83.1042 144.875L82.4375 146.646L81.3542 154.312L80.6875 155.854V157.396L80.4792 158.708L80.0208 162L79.1458 165.521L77.3958 167.062H73.2292L70.375 167.5L65.5417 168.167L61.5833 167.937L58.2917 168.167L55.2083 167.708L50.8333 167.937H32.8125L30.625 168.167H24.4792L22.9375 167.937L20.0833 168.167ZM60.9167 17.9375V16.1875L59.6042 17.0625L60.9167 17.9375ZM64.2292 26.0833L66.625 25.4167L69.5 24.3125L69.9375 22.125L68.6042 23.2083L66.1875 24.5417L64.6667 24.1042L63.3333 22.7708L62.4583 22.3333L63.5625 21.6875L62.8958 21.0208L61.5833 20.8125L59.3958 19.2708L57.1875 20.8125L56.3125 19.9167L56.5417 18.3958L55.2083 17.0625L54.125 17.2917L52.7917 17.9375L51.7083 18.8333L50.8333 19.7083L48.8542 21.4583L49.0625 23.6667L51.2708 23.875L52.5833 23.4375L55 22.7708L57.625 23L58.9583 22.7708L61.1458 22.5625L62.0208 23.875L62.25 24.9792L64.2292 26.0833ZM68.3958 19.9167L66.4167 18.3958L65.3125 18.8333L66.625 19.7083L68.3958 19.9167ZM52.5833 22.3333L51.2708 22.125L51.9167 21.0208L53.8958 21.6875L52.5833 22.3333ZM65.9792 31.3333L68.3958 30.4583L69.0417 29.375L69.7083 28.0417L69.5 27.3958L68.1667 28.0417L67.2917 27.3958L67.0833 27.8333L67.5208 28.9375L65.3125 29.1458L64.875 31.125L65.9792 31.3333ZM62.0208 33.3125L64.4375 33.1042V32.6667L62.25 31.7917L60.0417 30.4583L59.6042 28.9375L58.2917 27.8333L58.0625 29.1458L57.625 30.0208L56.5417 30.8958L57.4167 32H58.9583L60.2708 32.6667L62.0208 33.3125ZM48.8542 32.875H50.375L51.2708 30.8958L52.1458 29.8125V28.9375L50.8333 28.0417L50.375 28.4792L51.0417 29.375L49.7292 30.8958L48.8542 32.875ZM47.0833 30.6875L47.5208 30.0208H46.875L46.6458 30.4583L47.0833 30.6875ZM46.4375 33.3125L46.875 32.875L46.4375 32.6667L46.2083 33.1042L46.4375 33.3125ZM56.3125 38.1458L56.5417 37.0625L55.2083 36.3958L53.4583 34.2083L52.1458 34.4167L51.9167 35.9583L53.6875 37.0625L54.7708 37.9375L56.3125 38.1458ZM45.5625 37.5L46.6458 37.0625L48.1875 35.7292L47.75 35.2917L46.2083 36.1667L45.1042 36.6042L45.5625 37.5ZM64.2292 38.5833L64.4375 37.2708L63.3333 36.8333L62.25 38.1458L64.2292 38.5833ZM55.4375 40.3542L56.5417 40.125L55.875 39.4792L55.4375 40.3542ZM64.6667 43.2083L64.2292 41.2292L65.3125 40.3542L65.1042 39.6875L63.5625 40.5625V41.875L63.7708 42.9792L64.6667 43.2083ZM63.5625 46.9375H64.875L66.1875 46.5L65.75 45.625L64.4375 45.3958L61.8125 45.8333L63.5625 46.9375ZM55.875 49.125H57.1875L58.5 47.6042L57.625 46.7083L55.4375 47.375L53.2292 46.2708L52.7917 47.375L53.8958 48.4792L55.875 49.125ZM48.625 47.375L49.0625 46.9375L48.625 46.7083V47.375ZM61.5833 50.4583L62.4583 50.2292L62.25 49.5625H61.375L61.5833 50.4583ZM41.375 52.6458L42.4792 51.9792L43.3542 51.1042L42.4792 50.2292L41.1667 50.8958L40.5 52.2083L41.375 52.6458ZM61.375 56.1667L62.8958 54.1875L61.375 52.875L59.8333 54.1875L61.375 56.1667ZM44.8958 60.1042H46.4375L46.875 58.5833L48.4167 56.8125L47.9792 55.2708L46.2083 57.4792L45.1042 57.9167L44.6667 58.7917L44.8958 60.1042ZM53.2292 61.6458L54.125 60.5417L52.7917 60.3333L53.2292 61.6458ZM42.9167 65.8125L44.6667 64.7292L45.7708 65.1667H46.6458V64.2917L44.6667 63.8542L42.7083 65.1667L42.9167 65.8125ZM58.5 65.8125L58.2917 64.9375L57.4167 65.6042L58.5 65.8125ZM46.2083 69.7708L45.7708 68.8958L45.3333 69.3333L46.2083 69.7708ZM49.0625 75.7083V75.0417L48.4167 74.8333L48.1875 75.4792L49.0625 75.7083ZM57.625 83.3958L58.9583 82.2917L58.0625 80.5417L56.9792 80.3125L57.4167 82.9583L57.625 83.3958ZM41.1667 83.6042L42.4792 83.3958V81.1875L41.375 80.75L39.625 82.2917L41.1667 83.6042ZM46.6458 83.6042H48.1875L47.9792 82.7292L46.4375 82.9583L46.6458 83.6042ZM43.5833 93.0625L44.2292 91.7292L43.3542 90.8542L42.4792 91.7292L42.25 92.8333L43.5833 93.0625ZM53.6875 99.4167L54.5625 98.7708L55.4375 97.2292L54.7708 96.125L54.3333 97.2292L54.125 97.875L53.6875 99.4167ZM51.7083 102.271L52.1458 102.062L51.9167 101.625L51.4792 101.833L51.7083 102.271ZM37.6458 106.229L38.0833 106L37.875 105.562L37.4375 105.792L37.6458 106.229ZM50.8333 109.75L51.2708 107.771L50.6042 106.667L48.8542 106.896L48.4167 108.646L48.8542 109.312L50.8333 109.75ZM48.625 114.583L49.7292 114.125L49.5 112.812L48.8542 111.937L48.1875 113.042L48.625 114.583ZM32.1667 116.333H33.9167L35.2292 115.229L35.4583 114.583H34.5833L33.0417 115.458L31.9375 114.583L31.0625 112.812L30.625 114.354L32.1667 116.333ZM38.5208 119.625L40.5 118.083L41.1667 116.979L41.6042 115.458L39.8333 115.229L38.75 116.333L37.6458 117.208L38.5208 119.625ZM51.0417 116.542H51.7083V115.896H51.2708L51.0417 116.542ZM48.625 126.646L50.6042 125.333L52.3542 123.583L49.7292 121.812L51.0417 120.937L50.8333 119.396L49.7292 118.75L47.5208 118.083V118.958L47.9792 120.5H45.3333L44.8958 121.604L46.875 122.25L46.2083 123.792L45.5625 124.896L47.0833 126.437L48.625 126.646ZM41.6042 129.5L44.0208 129.062L43.1458 127.75L40.9375 126H39.625V127.312L41.6042 129.5ZM48.4167 136.75L49.0625 135.875L47.9792 133.896L46.4375 132.583L47.3125 131.271L49.5 130.375L51.0417 130.604L51.2708 129.062L50.1667 128.417L48.625 127.979L47.3125 128.625L46.2083 130.375L42.9167 133.021L43.3542 133.896H45.1042L46.6458 135.208L46.875 136.312L48.4167 136.75ZM36.5417 129.937L37.4375 128.854L35.8958 129.062L36.5417 129.937ZM30.3958 131.042L31.9375 129.937L30.3958 129.062H28.8542V130.604L30.3958 131.042ZM37.2083 133.021V131.271L35.2292 131.917L35.4583 132.792L37.2083 133.021ZM27.1042 134.562L27.5417 133.896L26.4375 133.458L26.2292 134.333L27.1042 134.562ZM31.5 138.521H32.8125L34.125 138.062L36.5417 137.417L37.6458 135.646L35.4583 136.104L34.125 136.75H32.8125L31.5 136.542H29.5208L30.1875 138.292L31.5 138.521ZM46.2083 146.187H47.75L49.0625 145.979L50.375 145.312L51.2708 144.229L50.8333 143.333L49.7292 143.771L48.4167 143.125L49.2917 142.687L49.5 141.583L47.5208 142.25L46.6458 140.917L45.3333 139.396L44.0208 138.958L42.25 137.417L41.8125 139.167L40.2917 139.833L39.1875 138.729L36.5417 138.958L35.8958 141.146L36.3333 142.687V144L36.9792 145.542L37.6458 145.312L38.3125 144L39.625 143.771L42.0417 142.25L43.3542 141.375L45.5625 140.917L47.3125 143.125L47.5208 144.875L46 145.104L46.2083 146.187ZM26.4375 138.521L26.8958 137.625H25.7917L26.4375 138.521ZM51.9167 140.917L52.5833 139.604L50.8333 138.521L49.7292 139.396L50.6042 140.479L51.9167 140.917ZM61.8125 145.312L61.5833 144.437L62.25 143.125L64 141.583L65.5417 141.375L67.5208 141.583L67.7292 140.708L65.75 140.271L64.6667 140.042L63.3333 140.917L61.5833 141.583L59.6042 141.812L57.625 140.917L56.3125 140.479L55.2083 142.896L58.0625 144.229L59.3958 144.667V145.104L61.8125 145.312ZM59.3958 142.896L59.6042 141.812L60.4792 142.25L59.3958 142.896ZM77.625 143.562H78.5L79.1458 142.687V142.25L78.0625 142.687L76.5208 142.25V142.687L77.625 143.562ZM32.6042 143.562L32.8125 142.896H31.5L32.6042 143.562ZM42.0417 144.875V144H41.375L41.1667 144.667L42.0417 144.875ZM34.3542 147.729L34.125 145.979L33.0417 146.646L34.3542 147.729ZM31.2708 151.021H32.375L32.6042 150.375L31.7083 149.271L31.2708 148.167L30.3958 147.083L29.5208 146.187L28.6458 146.854L28.8542 148.167L29.3125 149.5L31.2708 151.021ZM37.6458 150.812L39.3958 149.708L40.2917 148.167L39.8333 146.417L38.9583 147.729L38.0833 149.5L37.6458 150.812ZM55.875 147.521L56.5417 146.646L55 147.292L55.875 147.521ZM59.3958 151.25L60.4792 151.021H62.6875L64 150.583L64.875 149.271L65.5417 148.396L66.1875 147.083H64.875L62.25 147.958L61.375 148.833L59.6042 149.937L58.0625 151.021L59.3958 151.25ZM69.5 149.042H71.0208L70.375 147.958L69.5 149.042ZM73 151.25L74.3125 151.021L76.2917 150.146L78.5 150.583L78.2708 149.5L75.6458 149.042H74.3125L73.2292 149.5L71.8958 149.937L71.0208 150.583L73 151.25ZM25.7917 163.771H29.5208L31.5 163.542L32.8125 163.104L34.7917 162.667L37.4375 162.229L39.8333 161.354L39.625 160.687L37.875 161.125L36.7708 159.375L37.875 158.271L38.9583 156.521L39.3958 154.312L40.5 154.542L41.8125 156.292L42.4792 157.396H46L47.0833 157.167L46.4375 156.729L43.7917 156.083L42.4792 155.646L41.6042 153.875L40.7292 152.354L42.25 152.125L43.7917 150.375H41.6042L39.1875 152.125L37.6458 152.354L36.1042 153.229V154.542L34.7917 155.208L33.9167 155.854L34.125 157.833L32.8125 158.271L31.5 158.5L29.3125 158.937V160.042L30.1875 161.562L29.0833 162.229L26.8958 162.667L25.3542 161.792L25.7917 163.771ZM66.4167 152.125L68.1667 151.687L67.5208 150.812L66.1875 150.375L65.1042 151.25L66.4167 152.125ZM47.75 152.125L47.9792 151.021L46.875 150.812L46.6458 151.687L47.75 152.125ZM31.2708 153.667L29.75 151.687V152.562L30.1875 153.229L31.2708 153.667ZM59.1667 154.542L61.375 154.104L61.5833 152.792L60.4792 152.354L59.1667 152.792L57.625 152.354L56.75 152.125L57.625 154.104L59.1667 154.542ZM65.75 154.312H67.2917L68.8333 154.104L71.25 153.229L69.5 152.354L66.8542 153.229L65.5417 153.437L64.4375 154.104L65.75 154.312ZM52.7917 155.854V154.979L52.3542 153.875L50.375 153.437L50.8333 155.208L52.7917 155.854ZM36.5417 156.292L36.1042 155.646V154.542H37.2083L37.4375 155.854L36.5417 156.292ZM63.5625 156.292L64.6667 155.417L63.125 154.979L62.0208 155.208V155.854L63.5625 156.292ZM25.5625 158.271L24.6875 156.958L24.25 158.062L25.5625 158.271ZM64.6667 162L67.2917 160.479L68.3958 159.375L69.2708 158.271L69.5 157.625L67.9583 157.167L66.625 158.271L65.75 160.25L64.6667 160.917L63.5625 160.25L62.0208 158.937L61.1458 160.042L63.125 161.792L64.6667 162ZM45.5625 163.979L46.2083 163.771L46.6458 162.437L47.3125 161.354L49.7292 160.687L50.375 161.792L52.7917 162L53.8958 160.917L55.2083 159.375L54.7708 157.833L54.125 158.937L53.0208 159.583L49.9375 159.375L47.0833 158.708H45.7708L44.8958 160.25V161.562L45.1042 162.896L45.5625 163.979ZM32.8125 163.104L32.375 161.792L31.9375 160.687L30.8333 160.042L31.9375 159.812L33.25 161.562L32.8125 163.104ZM71.0208 163.104L71.8958 162.229L71.4583 160.687H70.375L71.0208 163.104ZM60.7083 164.417L60.4792 163.771L58.9583 162.896L57.625 162.229L57.4167 162.896L58.7292 163.333L60.7083 164.417ZM67.0833 164.646L68.6042 163.979L67.0833 163.104V164.646ZM34.5833 164.646L35.0208 164.417L34.7917 164.208L34.3542 164.417L34.5833 164.646Z" fill="black"/>
<path d="M145.038 168.375L143.059 167.708H115.392L112.746 167.062L109.892 167.708H108.371L106.83 167.937L105.288 167.708H102.205L99.788 167.5L98.038 167.271L96.9338 165.083L96.288 163.104L96.9338 158.5L97.163 157.167V152.125L97.8296 149.708L98.4755 146.854L101.559 142.25L102.871 140.042L103.746 138.729L104.184 137.625L105.059 136.542L106.392 134.333L108.58 130.604L109.684 128.417L110.788 125.771L111.663 124.021L112.538 122.708L113.184 121.167L114.725 118.521L115.6 117.437L116.059 116.104L120.663 109.083L122.205 106.229L123.955 103.812L124.392 102.708L125.496 99.6458L126.58 97.6667L128.788 93.9375L135.163 82.7292L136.475 80.1042L137.121 79L138.225 76.3542L138.892 75.0417L140.871 72.8542L141.309 71.5417L143.288 67.7917L144.6 65.6042L145.246 64.2917L146.58 61.875L147.455 60.5417L148.767 57.9167L149.434 56.8125L150.309 54.8333L151.621 53.3125L152.288 51.9792L154.038 49.3542L156.017 46.0625V44.0833L154.267 43.6458L151.621 43.8542H136.913L133.392 43.6458H131.642L128.121 43.4167L123.955 43.6458L122.205 43.4167L120.434 43.6458L117.371 43.4167L116.705 41.875L117.142 40.7917V37.9375L117.371 36.3958L117.809 35.0833V33.75L118.017 32.2292L118.684 29.375L118.913 28.0417L119.35 26.5208L119.559 25.1875V23.6667L120.434 20.8125L121.33 17.2917L122.642 15.0833L123.955 14.4375H133.184L136.913 14.875H158.434L160.413 15.3125H170.725L177.767 14.875L179.517 15.0833L182.809 15.3125L184.35 15.0833H185.663L188.746 15.5417L190.496 15.75L191.809 16.4167L193.121 17.2917L193.559 21.0208L193.788 22.7708L193.121 24.75L192.913 26.7292V29.5833L192.475 32.4375L192.246 34.2083L191.809 36.3958V38.5833L191.6 40.125L190.267 42.7708L187.642 48.25L186.975 50.8958L186.33 52.4167L185.663 53.5208L183.913 56.1667L183.475 57.4792L182.142 59.8958L181.496 61.2083L181.267 62.75L180.163 64.5L179.725 65.8125L176.434 72.4167L174.684 75.0417L174.246 76.3542L173.371 77.4583L171.163 81.4167L170.517 82.7292L169.642 84.0417L169.184 85.375L167.871 88.2292L166.996 89.75L166.559 91.0833L165.684 92.3958L165.017 93.7083L164.371 95.6875L163.267 97.4375L162.392 98.7708L161.288 99.8542L160.621 101.187L159.746 102.5L159.1 103.812L158.205 105.125L157.559 106.458L157.121 107.771L156.017 109.083L155.58 110.396L153.371 114.354L151.413 118.312L149.871 120.937L148.996 122.25L147.225 124.667L146.788 126L145.246 128.625L144.6 129.937L143.934 131.479L142.621 134.125L141.746 135.437L140.871 137.417L142.392 138.062L147.225 138.521L148.767 138.729H153.371L154.913 138.292L156.455 138.729H157.996L161.059 138.958H162.83L166.121 138.729H167.663L169.184 138.958L172.496 139.167L174.017 139.396H178.205L180.163 140.479V143.333L179.517 147.292V148.833L179.08 150.146V151.458L178.642 153L178.413 155.646L177.975 158.5L177.538 160.042L177.309 161.354L176.871 162.667L176.663 164.208L176.225 165.958L175.996 167.5L173.809 167.708H146.58L145.038 168.375ZM178.85 19.0417L179.725 18.1667L179.955 16.8542L178.85 16.1875L177.975 17.2917L177.538 18.3958L178.85 19.0417ZM167.434 18.3958L168.538 17.7292L167.663 17.0625L167.434 18.3958ZM174.684 20.5833L175.559 19.7083V18.3958L174.017 17.2917L173.809 19.7083L174.684 20.5833ZM163.038 20.1458L164.371 19.9167L164.809 18.3958L163.475 17.9375L162.163 18.3958L161.725 19.4792L163.038 20.1458ZM156.246 22.5625L158.205 22.125L156.892 20.8125H155.58L153.371 20.1458V21.25L155.35 21.8958L156.246 22.5625ZM133.184 34.2083L136.475 32.2292L137.58 30.0208L136.913 28.9375L135.6 28.4792L134.725 29.375L133.621 30.25L132.309 28.7083L131.85 27.3958L132.746 26.2917H134.059L135.371 25.8542L136.475 25.625L137.788 24.9792L138.892 24.5417L141.309 24.75L142.621 25.625L144.163 26.0833L145.246 27.1667L144.809 28.2708L146.35 28.4792L147.455 27.3958L147.892 26.2917L146.58 24.75H144.163L143.059 22.7708L143.496 21.8958L142.621 20.5833L141.517 22.125L141.309 23.2083L140.434 22.7708L138.663 22.5625L137.35 22.125L134.059 20.3542L132.517 21.0208V21.4583H134.059L132.746 22.5625L131.413 23.2083H128.788L126.809 23.4375L126.371 24.5417L125.705 25.8542L124.392 28.0417L123.08 28.2708L122.85 28.7083L125.934 31.7917V32.4375L126.142 33.1042L128.121 32.2292L130.33 31.5625H133.392L134.934 32L133.83 32.4375L132.517 32.6667L133.184 34.2083ZM175.996 35.2917L177.1 34.8542L177.975 33.9792L177.538 32.4375L175.121 31.7917L172.934 30.25L174.455 28.9375L176.434 27.1667L176.225 25.8542L176.871 24.75L178.642 26.0833L180.621 27.3958L184.121 26.0833L185.663 26.5208L187.413 25.1875L188.309 22.7708L187.205 21.4583L186.33 22.3333L185.434 24.1042L184.788 22.7708L183.475 21.25L182.371 20.8125L181.059 20.3542V21.4583L182.142 22.3333L181.496 23.875L180.163 23.6667L179.08 23L177.767 22.5625L175.121 23H174.017L172.705 22.7708L171.6 22.3333L169.642 23.2083L169.184 24.5417L168.746 27.1667L168.309 28.2708L167.871 29.5833L167.225 30.6875L166.121 31.3333V32.875L167.434 33.3125L168.975 33.5417H170.517L171.83 33.75L173.58 33.3125L174.684 33.1042V34.6458L175.996 35.2917ZM154.913 39.4792L155.58 38.1458L156.892 38.8125L158.205 38.375L158.642 36.6042L160.413 35.0833L160.85 33.1042L161.517 32.2292L160.85 30.0208L160.621 27.8333L163.267 26.9583H165.246L164.371 27.8333H162.83V29.1458L163.913 29.375L165.017 28.9375L166.996 26.9583L167.434 25.8542L166.996 24.5417L166.33 23.2083L165.017 21.8958L164.142 22.7708H161.955L161.517 21.6875L159.746 22.3333L158.434 24.5417L157.559 25.625L155.788 24.75L154.705 24.9792L154.913 26.2917L156.017 27.8333L154.475 29.1458H152.934L151.621 29.5833V30.6875H152.934L154.267 30.4583L155.35 30.8958H156.455L157.559 29.5833L158.642 29.1458L159.1 30.0208L159.538 31.3333V33.1042L157.121 34.2083L155.142 33.5417L153.163 32L152.288 32.6667L151.621 33.5417L150.309 33.9792L149.205 35.2917L149.434 36.8333L150.309 35.7292L151.184 34.8542L152.288 34.4167L152.934 33.3125L154.038 34.6458L154.913 35.5208L156.892 35.9583L155.788 36.6042H154.267L153.371 37.9375L154.038 39.25L154.913 39.4792ZM125.059 23.875L124.184 22.125L123.08 23.4375L125.059 23.875ZM174.455 28.9375L172.038 28.0417L171.6 26.0833L172.705 25.4167H174.246L174.913 26.0833L174.684 27.3958L174.455 28.9375ZM128.121 28.9375L126.809 28.4792L127.475 27.3958L128.996 25.625H130.33V26.9583L129.225 27.8333L128.121 28.9375ZM189.392 26.7292L190.059 26.5208L189.83 26.0833H189.184L189.392 26.7292ZM185.434 37.2708L186.538 36.8333L184.996 35.0833L185.434 34.2083L185.663 32.4375L185.892 31.125L185.663 30.0208L183.684 30.25L183.246 31.5625L183.038 32.875V35.2917L184.121 35.9583L185.434 37.2708ZM136.246 31.5625L134.934 31.125L136.475 30.8958L136.246 31.5625ZM146.35 33.5417L146.58 32.875L146.142 32.4375L145.913 33.1042L146.35 33.5417ZM127.246 37.5L128.35 36.8333L129.225 35.7292L129.892 34.4167L128.121 33.9792L126.371 35.9583L127.246 37.5ZM138.663 38.5833L139.1 38.1458L138.892 36.1667L137.35 35.0833L136.038 35.2917L134.934 35.5208V36.8333L136.246 37.0625L137.35 37.2708L138.663 38.5833ZM161.517 39.6875L163.038 37.5L161.517 35.7292L161.288 37.7083L161.059 38.5833L161.517 39.6875ZM178.642 48.4792H180.163L179.725 47.375L179.517 46.5L180.163 44.9583L181.496 43.8542L182.809 43.4167L184.35 42.7708L185.663 42.3333L186.1 42.9792L184.996 43.8542L184.788 45.1875L186.1 45.625L186.975 44.5208L187.205 43.4167L186.1 41.2292L184.996 40.5625L183.684 39.9167L181.267 39.0208L179.08 37.7083L178.85 38.375L179.288 39.25V40.5625L178.413 41.2292L175.788 41.4375L174.684 40.3542L173.142 37.7083L172.267 36.8333L171.163 35.9583H169.642L170.517 37.7083L172.267 39.9167L173.809 42.3333L174.913 42.9792L176.225 42.7708H178.85L179.08 44.0833L176.663 44.7292L175.35 44.9583L174.017 44.5208L173.142 45.1875L173.809 46.0625L175.121 46.5L177.309 48.0417L178.642 48.4792ZM175.35 37.7083L175.996 37.5L175.788 37.0625H175.121L175.35 37.7083ZM166.559 44.7292H168.538L169.413 44.0833L170.08 41.875L169.642 40.3542L168.975 39.0208L167.871 38.5833L166.767 40.125V41.875L166.33 43.6458L166.559 44.7292ZM148.767 40.125L148.996 39.6875H148.559L148.121 39.9167L148.767 40.125ZM163.267 43.8542L163.913 43.4167L163.475 42.1042L161.955 41.6667L160.621 42.1042V43.4167L163.267 43.8542ZM160.621 47.1458L160.85 46.7083L160.184 46.2708L159.975 46.9375L160.621 47.1458ZM173.58 55.0625L173.142 53.9583L172.038 52.875L170.955 51.9792L169.85 51.3333L168.538 50L169.642 49.7917H170.725L170.288 47.8125L168.746 47.375L167.871 48.4792V50.6667L168.746 52.2083L169.184 53.3125L171.392 54.8333L173.58 55.0625ZM174.913 51.7708V50.4583L174.017 51.3333L174.913 51.7708ZM165.892 55.5L165.684 54.625V53.3125L165.455 51.5417L163.913 52.4167L162.6 53.0833L163.705 54.625L165.017 55.0625L165.892 55.5ZM157.121 53.5208H158.434L157.996 52.2083L156.892 52.6458L157.121 53.5208ZM177.1 54.3958H178.413L177.975 53.5208L176.434 53.0833L175.788 53.9583L177.1 54.3958ZM155.58 58.3542H156.892L158.434 57.0417L160.621 55.7292L159.975 55.2708L158.871 55.9375L157.33 56.1667L155.58 56.6042L154.913 57.25L155.58 58.3542ZM167.663 61L169.413 60.5417L170.288 59.6667L169.642 58.7917L167.871 57.9167L165.684 58.125V60.3333L167.663 61ZM176.871 61.6458L178.413 60.3333L179.955 58.7917L179.288 58.5833L176.663 60.7708L176.871 61.6458ZM173.142 59.4583L173.371 59.0208L172.705 58.7917L172.496 59.2292L173.142 59.4583ZM160.413 59.4583H161.288L160.621 59.0208L160.413 59.4583ZM167.663 61L167.434 59.4583L168.538 59.8958L167.663 61ZM156.017 64.0625L157.767 63.3958L156.246 62.3125L156.017 64.0625ZM175.35 65.1667L175.121 62.3125H173.58L173.809 63.3958L174.017 64.9375L175.35 65.1667ZM173.58 69.7708L172.934 68.0208H169.184V69.3333H171.392L173.58 69.7708ZM160.621 72.625L160.85 71.9792L160.184 71.5417L159.746 72.4167L160.621 72.625ZM153.163 72.4167L152.934 71.75H152.288L152.496 72.1875L153.163 72.4167ZM157.33 80.3125L158.434 78.3333L160.184 76.7917L159.309 74.3958L158.205 73.9375L156.892 74.3958L157.121 75.2708L158.642 76.5833L157.767 77.4583L156.455 79.6667L157.33 80.3125ZM151.85 82.9583L152.934 81.4167L152.725 80.1042L151.413 78.3333L149.871 79.2083V80.9792L150.746 82.5208L151.85 82.9583ZM150.746 81.4167L149.871 80.9792L150.517 80.5417L150.746 81.4167ZM156.684 83.6042L156.892 82.7292H155.58L156.684 83.6042ZM148.767 85.5833H149.434L149.205 84.9375L148.559 85.1458L148.767 85.5833ZM145.705 88L146.142 86.8958L145.246 86.0208L143.934 86.8958L144.6 87.7917L145.705 88ZM156.684 92.3958L157.33 90.4167L156.246 88.4375L155.58 87.3333H154.267L152.934 87.7917L152.059 88.6667L152.725 89.5417H154.475L156.455 90.8542L156.246 91.7292L156.684 92.3958ZM141.746 93.0625L143.496 92.3958L144.809 92.1667V91.5208H143.288L141.309 92.6042L141.746 93.0625ZM136.913 95.4583L138.455 94.8125L137.788 94.375L136.913 95.25V95.4583ZM148.121 95.4583L148.559 95.0208L147.892 94.8125V95.25L148.121 95.4583ZM139.1 100.729L138.892 99.2083L138.017 99.8542L139.1 100.729ZM152.059 103.146L152.934 102.708V101.396L152.725 100.083L151.621 100.521V101.833L152.059 103.146ZM138.225 103.146H139.538V102.062H138.225L136.913 102.271V102.937L138.225 103.146ZM147.892 109.083L148.767 108.208L148.121 107.104L147.017 107.771L147.892 109.083ZM133.392 114.792L134.059 114.583L133.83 113.687L132.746 113.917L133.392 114.792ZM142.621 115.667L142.392 114.125L141.08 115.458L142.621 115.667ZM135.371 117.437L136.684 116.542V115.229L135.6 115.667L134.725 116.771L135.371 117.437ZM144.809 118.75L145.246 117.208L145.705 115.896L145.246 115.667L143.725 116.771L144.809 118.75ZM131.413 124.896L132.08 124.458L132.309 122.917L131.642 121.812L130.538 122.042V123.583L131.413 124.896ZM139.538 133.021L139.767 132.583L139.33 132.354L139.1 132.792L139.538 133.021ZM120.871 133.458L121.1 133.021L120.663 132.792L120.434 133.25L120.871 133.458ZM129.455 140.042L130.1 139.396L129.225 139.167L129.455 140.042ZM114.08 144.229L114.955 144L114.725 142.458L113.642 141.375L112.975 141.812L113.413 143.125L114.08 144.229ZM125.267 142.25H126.142V141.375L125.496 141.583L125.267 142.25ZM169.413 143.771V142.896L167.434 142.021L166.33 141.583L165.017 141.812L165.455 142.687H166.996L168.309 143.333L169.413 143.771ZM132.309 143.125L133.83 142.458L132.517 141.812L132.309 143.125ZM122.205 144.229L123.08 142.896L121.33 142.458L122.205 144.229ZM139.538 143.771L139.33 142.687L138.455 143.333L139.538 143.771ZM110.33 144.875L110.788 144.229L109.684 143.562L109.246 144.229L110.33 144.875ZM152.725 144.437L153.163 143.771L152.288 143.562L152.725 144.437ZM117.142 146.417L117.809 145.312L116.705 144.667L116.267 145.75L117.142 146.417ZM162.163 147.292L163.705 147.083L165.017 146.646L165.684 144.667L163.038 145.312L161.059 145.75V146.646L162.163 147.292ZM105.955 147.083L106.6 146.854V146.417H105.955V147.083ZM138.663 160.687L139.975 160.479L142.392 158.5L141.309 156.292L142.184 155.208L144.163 154.104L143.496 152.792L143.059 151.25L142.184 149.271L143.059 147.521L143.934 148.396L144.6 148.167L142.392 146.417L141.517 147.292L140.871 148.396L139.767 150.583L140.642 151.917L141.955 152.792L140.642 153.229L139.33 152.792L138.225 152.125L136.913 151.458L134.934 149.937L133.621 150.146L133.392 151.687L134.059 153.875L132.08 155.208L131.205 155.854L132.309 157.625L133.392 156.729L134.725 155.854L138.225 154.104L139.767 155.854L140.205 156.958L141.08 158.708L139.975 159.375L138.663 159.583V160.687ZM121.1 149.937L122.205 149.5L121.767 148.396L120.434 147.729L119.996 148.833L121.1 149.937ZM156.246 153.875L157.767 153.667L158.642 152.562L159.309 151.25L161.288 149.708L163.475 149.042L163.038 148.167L158.205 149.042L156.684 151.021L155.35 152.125L156.246 153.875ZM113.642 149.5H114.288V148.833H113.642V149.5ZM150.975 153.229H152.059L151.413 151.687L149.205 151.458L147.892 150.812L147.225 152.125L148.559 152.354L150.975 153.229ZM164.58 152.354L165.246 151.687L164.142 151.021L162.83 150.812L163.038 151.917L164.58 152.354ZM172.267 152.562L172.038 151.021L170.955 152.125L172.267 152.562ZM124.83 153.875H126.371L127.913 152.562L126.142 151.458L125.059 152.125L124.184 153L124.83 153.875ZM113.413 155.646L113.85 154.542L113.413 153.437L112.309 152.354L111.871 153.875L113.413 155.646ZM158.871 156.292L160.85 155.208L161.955 154.542L161.288 153.667L159.975 154.542L158.434 155.854L158.871 156.292ZM147.225 156.292L148.33 155.646L147.455 154.542L146.58 155.417L147.225 156.292ZM120.225 159.146L120.434 158.271L121.33 156.729L121.975 155.646L120.663 155.208L119.996 156.292L119.788 158.271L120.225 159.146ZM167.434 157.167L168.1 155.417L166.121 155.646L167.434 157.167ZM153.163 157.396L154.038 157.167L153.371 156.521L153.163 157.396ZM105.288 160.917L105.955 160.479L105.517 158.937L106.392 157.833L106.163 156.958L104.184 158.271L104.413 159.812L105.288 160.917ZM162.163 164.417L164.371 163.771L162.83 162.667L161.725 161.562L162.83 160.479L165.455 159.146L164.809 157.167L163.267 158.062L162.83 158.937L160.413 159.146L159.1 159.375L156.892 159.812L156.455 161.125L157.767 161.562L159.309 161.354L160.413 162.437L162.163 164.417ZM170.517 160.479L171.6 159.812L171.163 158.5L169.413 159.812L170.517 160.479ZM122.642 161.792L122.85 161.125L121.538 160.687V161.354L122.642 161.792ZM131.413 165.083L131.642 163.979L130.538 164.208L131.413 165.083Z" fill="black"/>
<path d="M290.856 41.2292L291.523 45.3958V47.1458L290.856 50.2292L290.627 51.7708L290.856 55.0625V56.6042L290.19 60.1042L289.752 63.625L289.106 65.8125L288.231 68.4583L287.773 70L287.335 71.3125L286.69 72.8542L285.585 75.4792L283.606 78.3333L282.96 79.875L282.065 81.8542L280.315 84.7083L279.648 86.0208L277.231 88.875L276.148 89.9792L273.065 93.2708L268.669 96.125L265.606 97.6667L264.065 97.875V99.8542L264.731 101.625L265.815 104.917V106.896L266.252 109.75L267.148 111.062L267.356 112.812L267.794 115.667L268.46 116.979L269.106 119.854L269.565 121.167L270.002 124.229L270.648 125.771L271.085 127.521L271.96 130.375V131.708L273.065 135L273.502 137.854L275.919 145.75L276.356 148.833L277.898 152.562L278.127 155.208L278.335 156.729L278.773 158.708L280.315 162.896L279.648 165.75L278.565 165.958L276.148 166.396H273.294L268.669 167.062L262.96 167.708H260.106L257.69 167.937H255.94L253.96 168.167L252.648 167.937L250.669 165.958L250.231 164.854L249.565 162.229L249.127 161.125L248.481 158.708L247.148 155.417V153.667L246.502 151.917L246.065 151.25L245.627 148.396L244.96 146.854V145.312L244.294 144L244.085 142.458L243.419 140.042L242.544 137.854V135.208L241.231 131.271L241.002 129.729L240.127 127.083L239.69 125.562L239.252 122.708L238.377 119.854L238.148 116.771L237.71 115.667L237.044 112.604L236.606 110.396L235.731 108.646L235.294 106.896L234.419 105.125L233.544 104.25L232.002 104.042L231.773 104.917L231.335 106.229L230.69 109.312L230.46 111.062L229.815 115.667V119.396L228.71 122.25L228.273 125.333V126.646L227.835 129.729L226.96 131.479V136.104L226.502 137.854L225.627 142.458L225.419 144.229L224.981 145.542V147.292L224.315 150.375L224.544 151.687L224.106 153.229V154.542L223.877 157.396L223.648 158.937V160.25L223.44 161.792L223.21 164.417L222.565 165.958L221.898 167.937L219.71 167.708L217.731 167.937L214.44 168.167L212.669 168.375L204.773 168.167H201.919L195.106 167.708L193.127 167.271L192.69 165.958V163.979L193.356 161.792L193.565 159.583L193.794 157.167V155.646L194.231 154.312V152.792L194.898 151.25V149.937L195.106 148.396L195.773 145.312V143.771L196.419 142.021L196.21 140.479L196.856 138.729L197.085 135.646L197.523 133.896L197.752 132.354L197.523 130.604L198.398 128.854V125.562L199.502 121.604V119.625L199.94 117.437L200.169 114.125V112.375L201.044 109.312L201.252 107.771L201.481 106V104.042L202.585 102.5L203.023 101.187L202.794 99.8542L203.023 97.2292L203.46 95.6875L204.106 94.375V93.0625L204.544 91.5208L204.981 89.1042L205.21 87.7917L205.648 84.9375L206.085 81.8542V80.1042L207.19 75.4792V73.9375L207.398 72.625L207.627 71.0833L208.065 68.2292L208.294 66.9167V65.375L208.502 64.0625L209.377 61.4375L209.606 58.3542L209.815 57.0417L210.481 53.9583L211.148 50.4583L211.794 47.375L212.023 46.0625V44.7292L212.231 41.875V40.5625L212.669 39.0208L213.335 36.3958L214.002 32.875L214.877 26.7292L215.085 24.9792L215.315 23.4375V21.6875L216.19 19.9167L215.981 17.5L216.856 16.4167L218.377 14.6458L220.585 14.2083H223.648L236.835 14.4375H246.273L247.815 14.2083L250.002 14L251.773 14.4375L255.065 14.875H257.044L259.898 15.3125L263.19 15.5417L265.606 15.9792H269.106L270.877 16.4167L273.294 17.5L275.273 18.3958L276.794 18.8333L278.773 20.1458L280.085 20.8125L281.19 21.4583L283.835 23L284.71 23.875L285.815 25.1875L286.69 26.2917L288.231 28.9375L289.752 32L290.419 35.5208L290.856 39.6875V41.2292ZM253.085 17.7292L252.419 17.9375L252.856 18.6042L253.085 17.7292ZM257.252 18.3958L257.044 19.9167L257.919 20.8125L258.794 19.2708L258.127 18.1667L257.252 18.3958ZM235.731 19.7083L234.648 21.25L235.085 22.3333L236.169 23L237.044 22.5625L237.273 21.4583L235.731 19.7083ZM259.46 22.5625V23.4375L260.981 23.6667L262.315 23.2083L263.398 22.3333L264.731 20.8125L264.065 19.9167L262.085 21.25L259.46 22.5625ZM270.877 20.3542L270.21 21.4583L271.085 21.6875L270.877 20.3542ZM248.919 20.8125L247.815 21.25L248.252 22.3333L249.356 22.125L248.919 20.8125ZM251.106 20.8125L250.898 21.6875H251.981V20.8125H251.106ZM227.169 22.3333L226.502 23.875L227.398 24.75L228.273 23.6667L227.835 22.125L227.169 22.3333ZM272.419 22.5625L272.19 25.1875L273.065 25.8542L273.731 23.875L273.94 22.7708L272.419 22.5625ZM265.606 24.75V26.2917L266.919 26.7292H268.46L270.21 25.1875L268.231 23.875L266.919 24.1042L265.606 24.75ZM274.835 24.75V26.2917L276.585 25.8542L276.148 24.3125L274.835 24.75ZM232.44 24.5417V25.8542H233.315V24.5417H232.44ZM238.377 27.8333L237.94 29.375L238.815 29.5833L239.46 28.4792L239.898 27.1667V26.0833L239.46 24.75L239.023 24.9792L238.815 26.5208L238.377 27.8333ZM245.835 32.2292V33.5417L246.502 34.6458L248.252 35.0833L249.356 34.8542H250.669L251.544 33.3125L251.335 32.2292L252.21 30.6875L253.294 30.0208L254.398 31.5625L253.752 32.875L253.523 34.2083L255.273 35.2917L257.69 34.6458V32.6667L256.815 31.5625L255.71 30.6875L254.835 28.9375L255.273 27.6042L255.502 26.2917L255.065 24.75L253.752 24.9792L252.856 25.8542L250.669 26.0833L250.002 27.1667L251.106 28.2708L251.544 29.5833L250.669 30.8958L250.002 30.25L248.69 30.6875L247.585 31.125L245.835 32.2292ZM261.21 30.6875L262.315 30.25L261.877 32L263.398 32.875L264.731 29.5833L264.502 28.2708L262.085 26.9583L260.981 26.2917L259.898 25.4167L257.481 26.2917L257.252 27.6042L259.46 28.7083L259.023 30.0208L259.231 31.3333L261.21 30.6875ZM242.315 28.2708L241.669 28.4792L241.877 30.0208L242.773 32.4375L243.648 32.2292L242.315 28.2708ZM228.481 33.3125H230.46L231.565 32L232.002 29.8125L230.252 30.8958L228.71 31.5625L228.481 29.8125L228.044 28.4792L226.96 30.0208L228.044 32.2292L228.481 33.3125ZM274.606 30.25L271.96 29.375L270.648 30.0208L268.46 29.375L267.585 28.9375L266.919 30.0208L267.794 31.125L268.898 32.2292L269.565 33.5417L268.46 33.9792L267.585 33.1042L266.69 32L265.815 32.875L266.044 34.2083L266.481 35.5208L267.356 36.6042L268.231 37.5L268.669 39.4792L269.773 40.7917L270.44 38.8125L270.002 37.0625L272.19 37.7083L272.419 39.0208L273.731 39.9167L275.273 40.5625L276.585 40.3542L277.898 39.4792L279.21 37.7083V36.3958L279.44 35.0833L279.21 33.75H278.127V35.0833L276.356 35.2917L276.148 33.3125L277.023 32.2292L277.231 30.8958L275.481 30.6875L274.606 30.25ZM222.335 29.1458L221.252 30.25L222.565 30.4583L222.335 29.1458ZM236.606 29.5833L236.398 29.375L236.169 29.8125L236.398 30.0208L236.606 29.5833ZM281.19 31.125L280.752 32.4375L281.419 32.875L282.294 32L282.96 30.6875L282.065 30.0208L281.19 31.125ZM219.273 32L218.169 31.5625L218.377 32.6667L219.273 35.0833V36.6042H220.148L219.919 35.0833L219.273 32ZM249.127 31.5625L249.565 32.4375H248.252L249.127 31.5625ZM275.044 37.2708L274.169 37.5L273.94 36.1667V34.6458L274.377 33.3125H274.835L275.481 35.9583L275.044 37.2708ZM285.585 33.75H284.71L284.919 34.6458H285.585V33.75ZM225.19 36.1667L224.315 37.0625L225.419 38.1458L226.96 37.7083V35.5208L225.19 36.1667ZM285.815 49.7917L287.127 47.375H286.252L285.815 48.6875L285.356 47.375L284.273 48.0417L284.919 49.3542L283.606 50.2292L282.294 49.5625L280.752 50.6667L281.19 52.4167L281.856 53.0833L281.19 55.2708L279.44 57.4792L277.69 58.5833L275.919 58.7917L274.169 56.6042L274.835 55.5L275.919 54.625L277.023 53.0833L277.69 54.1875L277.898 55.9375L279.21 54.1875L278.335 51.7708V50.4583L277.69 49.3542L276.794 46.9375L276.356 45.625L275.71 44.5208L273.294 43.8542L272.419 44.7292L273.502 46.5L275.044 48.25L274.606 49.3542L273.502 50.2292L271.96 49.5625L270.877 48.9167L270.002 47.375L270.877 44.9583L269.565 43.4167L267.148 41.6667L266.481 40.5625L266.044 38.375L265.377 36.8333L264.94 35.7292L263.627 35.9583H260.106L259.231 36.8333L258.565 39.0208L259.898 39.4792L260.544 40.3542L260.773 41.6667L261.648 41.2292L262.523 39.9167L263.627 39.0208L265.377 39.6875L265.815 42.7708L267.794 44.7292L268.46 45.8333L267.356 46.7083L266.044 46.9375L264.065 47.6042L263.627 48.9167L263.398 50.2292V51.7708L263.627 53.0833L264.065 54.625L265.169 54.3958L264.731 51.5417L265.606 50.6667L266.252 52.4167L266.919 53.5208L266.481 55.9375L268.231 57.9167L269.565 58.3542L270.648 58.7917L271.96 59.2292L273.065 59.8958L273.731 61.875L274.835 63.3958H275.919L277.69 64.9375L278.335 66.2708L280.315 68.2292V70L279.002 69.5625L277.898 68.6667L276.794 68.0208L275.919 66.7083L274.606 66.0417L273.294 65.8125L271.523 63.625L270.44 62.3125L269.335 61.4375L267.585 59.8958L266.044 60.7708L264.294 61.875L262.96 61.6458V63.1875L265.815 66.0417L265.169 68.0208L263.835 66.2708L262.523 66.4792L262.085 69.125L261.648 71.5417L260.773 70.875H259.023L259.669 71.9792L260.773 73.9375L260.106 75.2708L259.023 76.3542L256.815 77.8958L255.71 78.5625L255.065 79.6667L254.627 80.9792L255.94 81.8542L257.044 81.625H258.356L259.46 82.2917L260.773 81.8542L262.085 77.4583H262.96L263.398 79L263.627 80.5417L263.398 81.8542L263.19 83.3958L262.752 83.1667L261.44 83.6042L262.523 86.25V87.7917L261.44 89.5417L262.085 90.1875L263.19 90.4167L264.294 91.5208L266.69 90.8542L267.585 89.9792L268.669 90.1875L268.231 91.7292L268.669 91.5208L269.565 90.1875L269.106 89.1042L268.898 87.7917L269.106 86.4583L269.335 84.9375L269.773 83.6042H270.44L272.19 84.9375L273.065 86.0208L273.94 85.5833L272.627 83.6042L272.419 82.5208V80.1042L271.315 81.8542L270.21 80.75L270.44 78.7708L272.19 79L271.315 77.0208L269.565 77.8958L268.231 79.875L267.148 80.3125L265.377 79L265.169 77.6875L265.606 76.3542H267.148L268.46 76.5833L269.565 74.8333L269.773 73.5V70.6458L269.565 69.3333H270.21L270.44 71.0833L271.315 71.3125V70L272.856 68.0208L273.94 68.4583L274.169 69.5625L273.502 71.5417L274.835 72.1875L276.356 70.2083L277.46 72.1875L276.356 73.7292L275.044 74.1667L273.94 76.3542V77.6875L274.169 79L274.606 80.1042L275.71 80.3125L275.481 79L276.356 78.5625H277.898L278.565 77.25L279.21 76.1458L279.877 74.8333L280.544 73.7292L280.981 72.4167L281.627 71.0833L282.065 70L282.502 67.3542L281.419 66.7083L280.085 64.2917L279.877 62.9583L279.44 61.6458L278.565 60.5417L279.21 59.2292L280.752 60.1042L282.502 59.6667L281.856 56.8125V55.5L283.169 54.3958L284.481 54.1875L285.585 52.875L285.148 51.5417L285.815 49.7917ZM236.169 39.6875L237.273 40.125L237.502 39.0208L236.835 38.8125L236.169 39.6875ZM238.377 69.125L237.71 72.625L237.502 74.1667L237.71 75.7083L237.502 77.4583L241.231 77.8958H244.731L247.377 77.25L248.69 76.3542L250.898 75.0417L252.419 74.1667L253.96 72.4167L254.835 71.0833L256.377 69.7708L257.481 66.9167L257.919 65.1667L258.127 63.8542L259.669 60.7708V59.0208L260.335 57.25L260.544 53.75L260.335 48.9167L259.669 44.2917L258.565 42.3333L257.044 40.7917L255.065 39.6875L250.231 39.0208L244.96 38.8125L242.981 39.4792L242.315 41.875L241.669 43.4167L241.231 46.9375L241.002 50.2292L240.794 53.0833L240.356 54.8333L239.69 58.3542V59.8958L239.252 63.1875L238.585 65.1667L238.815 67.1458L238.377 69.125ZM280.085 41.6667L279.44 42.9792L278.565 44.2917L278.127 46.7083L279.877 46.9375L280.752 46.5L281.856 45.3958L281.419 43.8542L282.502 41.875V39.9167L282.065 38.8125L280.981 39.0208L280.085 41.6667ZM275.71 39.9167L274.835 39.4792L275.919 39.0208L275.71 39.9167ZM226.502 41.2292L228.044 41.875V41L226.502 41.2292ZM277.898 42.3333L278.565 42.1042V41.4375H277.898V42.3333ZM217.294 43.4167L216.627 44.9583L216.856 46.2708L219.044 47.375L220.356 46.7083L221.46 46.0625L221.252 45.1875L220.148 44.9583L219.044 44.2917L218.377 43.2083L217.294 43.4167ZM263.835 44.2917H264.502L264.731 43.6458L264.065 43.4167L263.835 44.2917ZM227.398 44.9583L226.731 44.5208L226.294 45.3958L226.96 45.8333L227.398 44.9583ZM229.148 47.8125V47.375H228.481V48.25L229.148 47.8125ZM268.023 52.4167L266.919 51.7708L265.606 50.6667L264.94 49.5625L268.46 47.8125L270.002 49.7917L270.877 50.8958L271.523 52.2083L271.96 53.3125L273.065 54.3958L272.856 55.7292L271.085 56.6042L270.002 56.1667L268.898 55.5L268.669 54.1875L268.023 52.4167ZM273.731 51.7708H273.065L273.502 50.2292L273.731 51.7708ZM223.002 51.9792L222.773 50.6667L221.46 51.3333L221.898 52.4167L223.002 51.9792ZM216.856 55.5L218.835 56.375L219.919 55.5L219.481 54.625H218.377V53.75L217.94 53.0833L216.856 55.5ZM229.377 58.3542L228.919 59.0208L229.815 59.2292L229.377 58.3542ZM235.96 59.0208L235.294 58.7917V59.4583L235.96 59.0208ZM217.294 62.0833L216.856 61.875V62.5208H217.065L217.294 62.0833ZM284.273 64.0625L284.919 62.9583L283.606 62.3125L282.96 63.625L284.273 64.0625ZM230.023 70L229.585 68.8958L229.815 67.5833L230.252 65.375H228.71L228.044 64.9375L226.294 64.5L224.544 66.7083L225.419 67.5833L226.731 66.7083L228.044 67.5833L228.273 68.8958L228.71 70.2083L229.585 70.875L230.023 70ZM216.19 67.3542L215.981 69.125L216.856 71.3125L217.065 72.625L217.502 73.9375L218.377 73.7292V72.1875L218.169 70.875L218.606 68.2292L217.294 66.7083L216.19 67.3542ZM212.898 69.5625L212.46 71.0833L213.106 72.4167L214.44 73.0625L214.648 71.5417L213.773 70.4375L212.898 69.5625ZM268.023 72.1875V73.5L268.231 74.6042L267.794 75.4792L266.69 73.5L265.606 72.4167L265.169 70.2083H266.481L268.023 72.1875ZM233.752 71.5417L232.44 71.75L232.669 72.8542L233.752 71.5417ZM223.21 73.9375L223.648 73.2917L222.335 72.625L221.023 72.4167L220.356 73.0625L221.69 74.1667L223.21 73.9375ZM264.065 74.1667L263.627 72.625L264.502 72.8542L264.065 74.1667ZM278.127 75.0417L277.231 74.3958L278.127 73.7292V75.0417ZM227.169 77.6875L229.148 77.0208L228.273 75.4792H226.96L226.065 76.7917L227.169 77.6875ZM223.648 76.7917L222.773 75.9167L221.69 77.0208L222.335 77.6875L223.648 76.7917ZM211.794 78.125L210.919 78.7708L211.356 80.1042L212.46 79.4375L211.794 78.125ZM253.523 79L252.419 78.5625L251.106 79L251.773 80.5417L253.523 79ZM235.96 80.5417L234.419 79.6667L233.315 80.75L233.981 81.1875L235.085 81.4167L235.96 80.5417ZM226.96 81.625H228.273L228.481 80.3125H227.169L226.96 81.625ZM218.169 82.2917H217.294L216.856 84.0417H217.94L218.169 82.2917ZM266.044 82.7292V83.1667H265.377V82.5208L266.044 82.7292ZM245.627 86.8958L247.148 86.25L248.481 83.6042L247.377 83.3958L246.273 85.1458L245.627 86.8958ZM268.46 83.3958V84.7083L267.794 84.4792L268.023 83.3958H268.46ZM242.981 99.6458L244.96 100.729L246.502 99.8542L245.169 97.2292H242.773L242.315 95.9167L242.773 94.5833L242.981 93.2708L243.856 91.0833L242.981 90.8542L241.877 92.6042L241.231 90.8542L241.877 89.75L243.21 88L242.106 86.25L240.794 87.3333L240.565 86.25V84.9375L240.127 83.6042H238.585L237.273 84.2708V86.0208L239.69 86.6875L239.252 88.875L238.377 91.5208L238.148 93.0625L237.044 95.0208L237.71 95.25L238.815 93.7083L239.69 92.8333L240.356 93.0625L240.127 94.375L238.585 96.5625L238.815 97.875L240.356 100.292H241.669L242.981 99.6458ZM260.106 87.3333L261.21 87.125L260.544 86.25L259.669 85.1458L259.231 83.8333L257.252 83.6042L256.169 84.7083L257.481 86.0208L258.565 86.25L260.106 87.3333ZM228.919 87.7917L229.148 85.375L228.71 84.2708L227.606 84.0417L227.835 85.375L228.273 87.5625L228.044 88.875L228.919 89.1042V87.7917ZM247.815 96.3542L248.69 98.1042L250.44 98.7708L251.544 98.1042L252.419 95.4583L254.627 95.6875L256.169 96.125L257.481 95.4583L256.815 94.1458H255.273L253.96 93.0625L254.835 91.9583L257.044 92.1667L258.565 90.1875L257.919 88.875L255.502 87.3333L254.627 85.375L253.96 84.4792L252.648 84.2708L251.335 84.9375L250.231 86.4583L249.565 87.3333H250.669L251.981 85.5833L253.085 86.4583L254.19 88L253.523 89.1042L252.648 90.1875L251.335 90.8542L250.231 92.3958L250.44 93.7083L250.231 95.9167L248.919 95.4583L247.815 96.3542ZM219.044 85.5833L218.377 86.8958L219.044 89.3125L220.585 87.125V85.5833H219.044ZM215.523 88L215.085 89.3125L215.315 90.6458L216.856 90.4167V89.1042L216.19 87.7917L215.523 88ZM235.731 91.9583L236.398 90.8542L235.523 89.75L234.648 90.6458L232.669 89.75L232.231 88.4375L230.46 88.875L230.898 90.6458L231.565 91.9583L232.002 93.2708V96.125L231.773 97.4375L232.669 99.4167L233.752 99.6458V97.875L233.106 96.5625L233.315 95.25L233.981 94.1458L235.731 91.9583ZM246.502 91.5208L245.398 90.4167L244.96 91.7292L246.502 91.5208ZM260.773 95.4583H261.648L262.315 93.2708L261.648 92.1667L261.21 92.3958L260.981 93.5L260.773 95.4583ZM208.294 92.8333L207.856 93.2708L208.294 93.5L208.731 93.2708L208.294 92.8333ZM264.94 94.5833V93.9375L264.294 94.1458L264.502 94.8125L264.94 94.5833ZM207.856 105.125H208.731L209.377 103.583L210.481 102.708L210.71 101.396L211.356 99.4167L212.898 98.3333L215.315 97.4375L216.419 96.7917L216.856 94.1458L216.19 94.5833L215.085 95.9167L212.898 96.5625L211.794 96.7917L210.481 99.2083L209.169 100.521L207.856 101.187V105.125ZM227.606 100.292L228.481 99.4167L227.606 96.7917L226.502 95.9167L225.19 95.6875H223.877L222.335 96.5625V97.875L222.565 99.2083L222.127 101.833V103.812L220.794 103.375L220.585 101.396L219.273 100.521L218.377 101.187L217.94 102.5L218.377 103.812L219.481 103.146L220.148 103.583V106.229L220.356 107.542L220.794 109.958L221.023 111.271V112.604L220.794 113.687L220.148 113.25V111.937L217.731 111.5L216.19 111.937L214.877 111.271L213.565 110.833L211.585 111.062L212.023 113.25L213.565 114.125L215.523 115.458L216.19 116.979L215.523 117.646L214.44 116.771L213.335 117.437V118.75L214.21 121.375L214.877 122.708L216.419 124.667L216.856 126L215.752 127.521L214.002 128.187L215.752 129.5H217.065L218.169 129.937L218.377 131.479L217.502 132.583L217.94 134.771L219.71 133.687V132.146L219.919 129.729L218.835 127.083L218.377 125.562L218.169 124.229V122.708L219.71 120.062L221.898 119.396L222.335 118.312L222.773 116.333L223.648 115.229L224.752 114.354L226.065 111.937L224.981 112.167L223.877 113.479L222.127 111.729V110.187L222.335 109.083L223.21 108.646L223.648 107.979L223.44 106.667L225.19 105.562L225.856 104.25L226.294 105.125H227.606L226.96 104.042L226.294 103.146V101.833L227.606 100.292ZM219.71 97.2292L219.481 98.1042L220.356 98.3333L220.794 97.4375L219.71 97.2292ZM224.981 98.7708L226.502 98.3333L226.96 99.2083L224.315 103.146L223.44 101.833L223.648 99.4167L224.981 98.7708ZM254.835 104.25L255.502 105.562L256.169 105.792L256.606 104.479V103.146L257.481 102.708H259.46L258.356 100.958L257.252 100.521L256.606 98.9792L255.502 98.3333L253.96 98.7708L252.648 100.521L253.294 101.833L254.835 104.25ZM255.273 100.521H256.169L255.502 101.396L255.273 100.521ZM249.565 105.354L251.981 105.562L251.335 102.937L250.231 102.062L248.919 102.5L249.127 104.042L249.565 105.354ZM240.794 106L241.44 104.687L240.794 102.937L239.69 102.5L238.585 103.583L237.94 104.917L238.148 106.458L240.794 106ZM213.335 104.479L214.21 103.583L213.106 103.146L213.335 104.479ZM205.648 105.125L205.44 105.562L205.648 105.792V105.125ZM215.315 106.667L214.21 107.771L215.752 108.417L215.315 106.667ZM258.565 109.083L259.898 107.979L258.794 107.104L257.69 107.979L256.606 110.625L256.377 111.729H257.69L257.481 110.625L258.565 109.083ZM241.877 108.208L242.981 108.646L242.315 107.333L241.877 108.208ZM252.21 108.854L252.648 109.958L252.856 111.5L253.96 111.062L253.752 109.75L252.21 108.208V108.854ZM247.377 119.854L247.815 115.667L247.377 114.583L246.71 113.25L246.273 108.854L245.398 108.417L244.96 109.521L244.523 112.167L246.502 116.104L244.96 117.208L244.731 118.75L245.398 119.625L246.273 120.729L247.377 119.854ZM205.648 113.25L205.21 113.917L205.648 114.583L205.877 113.917L205.648 113.25ZM262.96 114.583H263.627V113.917L263.19 114.125L262.96 114.583ZM208.502 114.125L206.96 116.542L207.856 116.771L209.377 115.229L208.502 114.125ZM248.919 118.958L250.231 118.75L250.669 117.646L251.544 115.896L250.669 115.021L249.794 115.896L249.127 117.646L248.919 118.958ZM219.273 115.896L221.023 116.104L221.252 118.312L219.71 119.187L218.606 118.75L218.377 117.208L219.273 115.896ZM204.335 116.104L203.669 116.333L204.544 118.75L205.44 118.083L204.335 116.104ZM211.356 117.437L209.377 116.979L208.94 118.312L210.919 118.75L211.356 117.437ZM260.773 117.875L260.981 117.437L260.544 116.979L260.335 117.646L260.773 117.875ZM216.856 119.854L217.065 118.312L217.502 119.625L216.856 119.854ZM256.606 118.958L255.502 118.75L256.169 120.062L256.606 118.958ZM251.335 120.937L251.773 120.729L251.544 120.292L251.106 120.5L251.335 120.937ZM260.335 120.5L258.794 121.604L259.669 122.479L260.981 121.604L260.335 120.5ZM203.46 121.375L202.356 121.812L203.669 122.479L203.46 121.375ZM221.252 124.667L222.127 122.917L220.585 123.354L221.252 124.667ZM241.877 123.354L242.544 123.583L242.315 122.917H241.669L241.877 123.354ZM250.898 126.437L251.773 125.771L251.335 124.458L250.44 123.583L249.127 123.146L248.919 124.229L249.794 125.333L250.898 126.437ZM207.19 123.354L206.315 123.792L206.96 125.125L207.627 126.208L209.377 128.417L210.481 129.5L211.585 129.062L210.71 126L209.606 125.771H208.502L208.065 124.458L207.19 123.354ZM254.19 123.583L254.835 124.458L255.71 123.583H254.19ZM264.731 129.292L263.627 128.417L262.752 126.646L263.19 125.125L262.085 124.458L261.44 125.562L261.648 127.521L262.96 129.292L263.627 130.604L264.294 131.708H264.94V130.375L264.731 129.292ZM257.252 129.937L255.94 129.062L255.502 129.5L256.606 130.604H257.919L258.565 129.729L258.794 128.417L258.127 126.646L257.919 125.333L256.815 125.562L257.252 126.875L258.127 128.854L257.252 129.937ZM205.21 126.437L203.898 126.208L203.669 127.312L204.544 127.521L205.21 126.437ZM201.252 133.25V134.333L202.585 134.125L202.356 133.021L201.252 133.25ZM260.981 134.125L260.773 135.646H261.648L262.96 133.458L260.981 134.125ZM212.669 136.312H213.335V135.646H212.669V136.312ZM268.669 135.646L267.585 137.417L269.565 137.187L268.669 135.646ZM222.773 138.062L223.21 136.104H223.002L222.127 138.062H222.773ZM250.44 138.958L251.544 138.729L251.335 137.417L250.44 136.312L250.002 137.854L250.44 138.958ZM256.815 139.833L258.356 140.271L259.46 139.833L258.565 139.396L257.919 138.292H256.169L256.815 139.833ZM207.19 138.729L205.877 139.167L205.44 140.479V142.021L205.648 143.333L207.398 143.771L210.044 144.229V142.458L208.294 141.146L207.856 139.833L207.19 138.729ZM253.085 145.75H254.19L253.752 143.333L252.856 143.562L253.085 145.75ZM262.085 145.75V144.229L260.981 144L260.773 145.542V146.854L261.648 147.083L262.085 145.75ZM258.794 144.437L258.127 145.104L259.023 146.854H259.669L258.794 144.437ZM216.627 148.396L217.294 146.646L215.085 147.521L216.627 148.396ZM213.106 155.854L214.877 153.875L214.648 152.792H214.002L213.335 153.875L212.023 153.437L210.044 153L210.252 150.583L208.502 149.271L207.398 149.937L206.523 151.021L205.877 149.5V147.958H204.981L203.669 149.708L202.127 149.271L200.815 150.583L199.273 152.354L200.377 152.792L201.044 151.917L202.356 153L204.981 152.125L206.085 152.354H206.752L208.502 150.812L208.731 153L210.71 155.208L213.106 155.854ZM255.94 149.271L256.606 147.958L255.065 148.396L255.94 149.271ZM255.273 153L255.71 152.562L255.273 152.354L255.065 152.792L255.273 153ZM266.044 152.562H264.94L264.065 153H262.752L262.96 154.771H264.294L265.606 153.667L266.481 154.979V159.375L267.148 162L268.669 160.687L268.231 157.833L267.794 155.208L267.148 154.312L266.044 152.562ZM269.335 153.875V153.229L268.898 153.667L269.335 153.875ZM270.877 153.875L270.648 155.417L271.315 155.646L271.523 154.104L270.877 153.875ZM259.46 155.646L260.106 154.542L259.023 154.312L259.46 155.646ZM203.231 158.708L204.544 158.5L204.106 157.167L203.231 156.521L202.356 157.396L203.231 158.708ZM201.044 160.687V159.375L200.815 158.271H199.502L199.273 159.583L199.502 160.917L200.169 162H200.815L201.044 160.687Z" fill="black"/>
<path d="M322.696 158.669C317.779 157.287 313.84 156.103 313.888 155.922C313.937 155.742 314.801 154.683 315.801 153.597C316.741 152.495 318.714 150.186 320.072 148.487L322.572 145.416L316.617 149.108C313.348 151.199 310.618 152.724 310.514 152.632C310.486 152.495 311.846 146.218 313.648 138.769C315.406 131.244 316.891 124.741 316.867 124.348C316.722 121.278 315.193 125.06 311.431 137.659C309.03 145.657 306.955 152.194 306.803 152.282C306.71 152.387 304.081 149.683 301.024 146.413C297.983 143.083 295.442 140.533 295.393 140.713C295.329 140.954 296.517 143.98 298.09 147.497C299.602 150.998 300.85 154.041 300.802 154.221C300.754 154.402 297.499 154.755 293.506 154.975C289.574 155.211 286.259 155.548 286.227 155.668C286.179 155.849 289.745 156.74 294.141 157.66L302.136 159.351L301.344 160.622C300.894 161.339 298.856 163.889 296.851 166.318C294.846 168.747 293.423 170.687 293.773 170.587C294.062 170.471 297.134 168.393 300.559 165.957L306.707 161.543L312.757 165.679C316.073 167.986 318.983 170.12 319.296 170.397C320.662 171.795 318.56 168.33 316.18 165.177C314.746 163.31 313.685 161.736 313.853 161.588C314.006 161.499 317.77 161.412 322.167 161.365C326.565 161.318 330.525 161.218 330.859 161.179C331.268 161.095 327.57 159.975 322.696 158.669Z" fill="#E74B30"/>
<path d="M356.394 32.3819C355.69 28.1099 353.094 25.7195 347.416 24.1979C343.606 23.177 342.307 23.1371 341.716 23.9034C340.756 25.187 334.856 40.0165 332.028 48.2727L329.844 54.6985L333.538 56.1506C335.546 56.9967 338.866 58.1177 340.951 58.6762L344.689 59.6778L345.929 56.7743C346.679 55.1261 348.523 48.5322 350.112 42.0242C351.683 35.5881 353.233 30.3792 353.592 30.4755C354.958 30.8414 354.411 35.4715 352.139 42.7984C350.768 47.0536 349.176 51.5578 348.561 52.7028C347.778 54.1879 347.762 55.1082 348.38 55.9671C348.872 56.7155 349.442 57.1764 349.625 57.0711C349.807 56.9659 351.481 51.8673 353.406 45.8343C356.096 37.2328 356.742 34.2471 356.394 32.3819Z" fill="black"/>
<path d="M353.101 19.9431C351.518 17.5155 347.885 16.6963 345.692 18.266C344.723 19.0078 343.878 19.8601 343.801 20.1476C343.609 20.8665 347.154 22.5869 350.676 23.5307C352.905 24.1277 353.557 23.9943 353.826 22.9879C354.038 22.1972 353.699 20.8738 353.101 19.9431Z" fill="black"/>
<path d="M340.234 60.4874C338.423 59.771 335.39 58.7271 333.521 58.2263L329.999 57.2825L324.625 77.3378L319.251 97.3931L323.789 99.1483C326.3 100.129 328.581 100.817 328.854 100.66C329.108 100.574 331.94 93.1659 335.067 84.3731C338.285 75.5278 341.464 66.8262 342.161 65.0869L343.406 61.8766L340.234 60.4874Z" fill="black"/>
<path d="M326.115 110.018L326.033 106.298L322.295 105.297L318.557 104.295L315.815 108.491C314.24 110.92 313.264 113.124 313.527 113.58C313.738 113.944 314.286 116.787 314.704 119.827L315.479 125.274L317.253 120.664C318.518 117.382 318.908 115.638 318.473 114.674C317.847 113.273 318.716 112.042 320.226 112.447C321.663 112.832 321.925 114.443 320.74 115.127C320.193 115.443 319.179 117.79 318.466 120.45L317.214 125.122L320.502 121.766C322.23 119.918 324.082 118.18 324.538 117.917C325.723 117.233 326.311 114.462 326.115 110.018Z" fill="black"/>
<path d="M323.595 101.022C319.138 99.8282 318.524 99.8179 318.432 101.026C318.378 102.09 319.235 102.628 323.15 103.831C327.549 105.241 327.947 105.193 328.313 103.828C328.66 102.534 328.267 102.274 323.595 101.022Z" fill="black"/>
</g>
<defs>
<clipPath id="clip0_21_26">
<rect width="371.034" height="188.246" fill="white"/>
</clipPath>
</defs>
</svg>
